<svg width="94" height="52" viewBox="0 0 94 52" fill="none" xmlns="http://www.w3.org/2000/svg">
<path d="M0 51.7812V48.6201H19.8253V51.7812H0Z" fill="#834C33"/>
<path d="M19.8252 51.7812V48.6201H93.9993V51.7812H19.8252Z" fill="#834C33"/>
<path d="M94 41.358H85.9673V5.048C85.9673 3.08299 85.1982 2.05776 83.7455 2.05776C82.5491 2.05776 81.4382 2.65581 80.2419 3.93734C80.6692 4.96256 80.9255 6.15866 80.9255 7.69649V39.991H82.891V41.358H74.9437V5.048C74.9437 3.08299 74.1746 2.05776 72.6365 2.05776C71.611 2.05776 70.671 2.48494 69.8165 3.42473V39.991H71.7819V41.358H61.7838V39.991H63.7493V2.31407H61.7838V0.861669H69.8165V1.97233C70.9274 1.03254 72.4656 0.519928 74.3456 0.519928C76.8237 0.519928 78.6183 1.28885 79.7292 2.82668C81.2673 1.28885 83.1473 0.519928 85.4546 0.519928C89.8982 0.519928 92.0345 2.91212 92.0345 7.69649V39.991H94V41.358Z" fill="#1A5D54"/>
<path d="M38.4552 33.8397C38.4552 36.061 37.6861 37.9406 36.2334 39.4784C34.6097 41.0163 32.5588 41.7852 30.0807 41.7852C27.6025 41.7852 25.5516 41.0163 23.928 39.4784C22.3044 37.9406 21.5353 36.061 21.5353 33.8397V29.0553H27.6025V37.2571C27.6025 39.3076 28.4571 40.3328 30.0807 40.3328C31.6189 40.3328 32.4734 39.3076 32.4734 37.2571V31.2766C32.4734 28.799 31.7898 26.834 30.337 25.467L23.928 19.0594C22.3044 17.5216 21.5353 15.2148 21.5353 12.1391V8.46541C21.5353 6.24409 22.3044 4.36452 23.8425 2.82668C25.3807 1.28885 27.3462 0.519928 29.9098 0.519928C32.3879 0.519928 34.4388 1.28885 35.977 2.82668C37.5152 4.36452 38.2843 6.24409 38.2843 8.46541V13.2498H32.217V5.048C32.217 2.99755 31.4479 1.97233 29.8243 1.97233C28.2861 1.97233 27.5171 2.99755 27.5171 5.048V10.4304C27.5171 12.9081 28.2007 14.8731 29.568 16.24L35.977 22.5622C37.6006 24.1855 38.3697 26.4923 38.3697 29.4825V33.8397H38.4552Z" fill="#1A5D54"/>
<path d="M60.6716 41.358H52.6389V40.2474C51.528 41.2726 50.0753 41.6998 48.2808 41.6998C44.0081 41.6998 41.7863 39.3076 41.7863 34.5232V25.6379C41.7863 20.5972 44.7771 18.1196 50.7589 18.1196H52.6389V5.048C52.6389 2.99755 51.8698 1.97233 50.3317 1.97233C48.8789 1.97233 48.1099 2.99755 48.1099 5.048V13.2498H42.0426V8.46541C42.0426 6.07322 42.8117 4.10821 44.2644 2.65581C45.8026 1.20341 47.768 0.519928 50.3317 0.519928C52.8953 0.519928 54.9462 1.20341 56.3989 2.65581C57.8516 4.10821 58.6207 5.98779 58.6207 8.46541V39.991H60.6716V41.358ZM52.6389 38.8804V19.4866H50.8444C48.8789 19.4866 47.8535 20.5118 47.8535 22.5622V37.2571C47.8535 39.2221 48.5371 40.2474 49.9044 40.2474C50.8444 40.1619 51.6989 39.7347 52.6389 38.8804Z" fill="#1A5D54"/>
<path d="M6.06724 34.1814V5.048C6.06724 2.99755 7.00723 1.97233 8.80176 1.97233C10.5963 1.97233 11.5363 2.99755 11.5363 5.048V27.6884C13.929 25.2962 16.1508 24.1001 17.6035 23.502V8.46541C17.6035 6.24409 16.749 4.36452 15.1254 2.82668C13.4163 1.28885 11.3654 0.519928 8.80176 0.519928C6.23814 0.519928 4.18725 1.28885 2.47817 2.82668C0.85454 4.36452 0 6.24409 0 8.46541V33.8397C0 35.2921 0.341816 36.5736 1.02545 37.7697C1.36726 37.5989 1.79453 37.428 2.2218 37.1717C3.24725 36.5736 4.61452 35.6338 6.06724 34.1814Z" fill="#1A5D54"/>
<path d="M16.6639 25.638C15.2966 26.4069 13.4167 27.6884 11.5367 29.9952V37.2572C11.5367 37.8552 11.4512 38.3678 11.2803 38.795C10.9385 39.8202 10.084 40.3328 8.80214 40.3328C8.63123 40.3328 8.54578 40.3328 8.37487 40.3328C6.8367 40.162 6.06761 39.1367 6.06761 37.2572V36.9154V36.4028C4.52944 37.6843 3.16217 38.5387 2.05127 39.0513C2.22218 39.2222 2.39309 39.393 2.56399 39.5639C3.50399 40.4183 4.52944 41.0163 5.72579 41.3581C5.81125 41.6144 5.81125 41.9561 5.72579 42.2978C5.46943 42.9813 5.12762 43.6648 4.70035 44.2629C4.18762 44.9463 3.8458 45.5444 3.8458 46.3133C3.8458 48.022 5.29852 49.4744 7.0076 49.4744C8.71669 49.4744 10.1694 48.022 10.1694 46.3133C10.1694 45.5444 9.82759 44.8609 9.31486 44.2629C8.80214 43.5794 8.37487 42.725 8.20396 41.9561V41.8707C8.46032 41.8707 8.71669 41.8707 8.97305 41.8707C11.5367 41.8707 13.5876 41.1018 15.2966 39.5639C16.9203 38.0261 17.7748 36.1465 17.7748 33.9252V25.2108C17.3475 25.2962 17.0057 25.4671 16.6639 25.638Z" fill="#834C33"/>
</svg>
